<svg xmlns="http://www.w3.org/2000/svg" viewBox="0 0 99.57 59.72"><defs><style>.cls-1{fill:#333;}.cls-2{fill:#228765;}.cls-3{fill:#36cc7c;}.cls-4{fill:#94d794;}.cls-5{fill:#ef716d;}.cls-6{fill:#e6d031;}</style></defs><g id="Layer_2" data-name="Layer 2"><g id="Layer_1-2" data-name="Layer 1"><path class="cls-1" d="M95.23,39.06a3.26,3.26,0,0,1-.19.66,6.36,6.36,0,0,0-.45,2.15c0,3.42.54,8.5.94,12.21.1,1,.2,1.86.28,2.63,0,.4.06.77.09,1.08H91.38c.13-.4.32-.83.52-1.29A10.16,10.16,0,0,0,93,51.82a24.33,24.33,0,0,0-.5-3.74,12.86,12.86,0,0,0-.68-2.21,18.8,18.8,0,0,0-.9-1.81,16.92,16.92,0,0,1-1.29-2.75.83.83,0,0,0-.08-.22,10,10,0,0,0-1.25-2.25A28.76,28.76,0,0,1,85.67,34a5.29,5.29,0,0,0-.53-1c-.23-.44-2.08-3.95-4.88-4.75a.93.93,0,0,0-1,.28.89.89,0,0,0-.21.38,1,1,0,0,0,.66,1.2l.21.07a4.5,4.5,0,0,1,1.43,1,7.84,7.84,0,0,0-1,0h0a15.23,15.23,0,0,0-3.24.44c-1.56.37-6.5,1.76-11,3.21a35.83,35.83,0,0,1-8.38,1h0l-.7,0h0a60.9,60.9,0,0,1-11.76-.66c.22-.39.48-.84.71-1.34.14-.28.28-.58.4-.88a1,1,0,0,0-.55-1.26.88.88,0,0,0-.55,0,1,1,0,0,0-.71.58,17.29,17.29,0,0,1-1.64,3h0l-.38.55a32.91,32.91,0,0,0-3.7,6h0c-.37.91-.72,2-1.22,3.53a4.72,4.72,0,0,1-.36.58,6.74,6.74,0,0,0-1.08,2.18,48.94,48.94,0,0,0-1.35,9.66H31l.39-.64A16.29,16.29,0,0,0,34,49.5v0a8.75,8.75,0,0,0-.14-1.83,19,19,0,0,1-.21-2.33h0a5.89,5.89,0,0,1,.06-1.2,15.46,15.46,0,0,1,.66-2.34,19.54,19.54,0,0,0,.74-2.57,5.76,5.76,0,0,0,.1-1.69A38,38,0,0,1,35,33.23s0,0,0,0h0A8.34,8.34,0,0,1,35.07,32a.93.93,0,0,0-.52-1h0a1,1,0,0,0-.24-.09,1,1,0,0,0-1.13.78,15,15,0,0,0-.09,3.08,31.59,31.59,0,0,1-7.4-6.35,17.26,17.26,0,0,1-2-2.94,22.76,22.76,0,0,0-3.28-4.61A11.11,11.11,0,0,0,18.34,19a5.34,5.34,0,0,0,1-.88A1.08,1.08,0,0,0,19,16.73,1.06,1.06,0,0,0,17.6,17a5.56,5.56,0,0,1-1.9,1.45h0l0,0c-.11.05-.44.19-.9.36-.76.27-1.82.62-2.68.83a33.89,33.89,0,0,1-3.62.51c-.89.1-1.41.15-1.7.21a2.27,2.27,0,0,0-1.15.6c-.73,0-3.16-.7-3.55-1.82-.21-.6-.14-.65.37-1a2.94,2.94,0,0,0,.88-.88.43.43,0,0,0,0-.07c.18-.29.47-.84.8-1.47.51-1,1.47-2.79,1.73-3.1.54-.64,1.43-1.89,2-2.78l.28-.42A5.36,5.36,0,0,0,9.23,7.21,4.15,4.15,0,0,1,10.51,6l.14-.09.5-.32s0,0,0,.07a1,1,0,0,0,1.22.67A1,1,0,0,0,13,5.58a.9.9,0,0,0,0-.46,3.36,3.36,0,0,1,.14-1.27A12.79,12.79,0,0,1,15,2a7.22,7.22,0,0,1,0,2.46,10.13,10.13,0,0,1-.52,1.17,1,1,0,0,0-.07.24A1,1,0,0,0,14.88,7a1,1,0,0,0,.46.11.94.94,0,0,0,.85-.51,8,8,0,0,0,.44-.93c.31.11.64.2,1,.3a12.4,12.4,0,0,0,3.52.49c.33,0,.63,0,.93,0,1.34.16,5.16.51,7,.51h.17a53.77,53.77,0,0,0,6.43-1.13c1.22-.25,2.41-.49,3.3-.65.43-.08.79-.14,1-.17a72,72,0,0,1,8,.91l2.32.32a76.81,76.81,0,0,0,8.52.89c1.33,0,2.82-.07,4.34-.16l3.67-.26c2-.16,3.83-.29,4.94-.29.54,0,1.33,0,2.27,0l3.63-.14C80.75,6.12,84.23,6,86.15,6a8.79,8.79,0,0,1,5.3,1.48h0c.18.14.35.29.52.45l.19.16a.46.46,0,0,1,.07.07,7,7,0,0,1,1.15,1.61c1.45,2.8,1.31,5.79,1,8.61-.15,1.26-.52,3.43-.92,5.71,0,.24-.08.47-.11.7a69.55,69.55,0,0,0-1,6.9C92.31,33.41,94.31,38,95.23,39.06ZM99.37,24a30.34,30.34,0,0,0-1.75-10.89h0a16.69,16.69,0,0,0-4-6.24l-.12-.12c-.15-.14-.29-.27-.44-.39a10.33,10.33,0,0,0-6.94-2.29c-2,0-5.47.13-8.57.24l-1,0h0c-2,.07-3.79.14-4.74.14-1.18,0-3,.13-5.09.3-2.59.19-5.52.41-7.86.41A105.89,105.89,0,0,1,48.27,4c-4.6-.65-7.48-1-8.52-.91s-2.66.47-4.52.84l-.65.14a50.23,50.23,0,0,1-5.42,1h-.11c-1.66,0-5.53-.36-6.78-.49-.36,0-.71,0-1.09,0a11,11,0,0,1-3-.41L17,3.74A7,7,0,0,0,16.67.83,2,2,0,0,0,14.33.14a13,13,0,0,0-2.78,2.64,2.05,2.05,0,0,0-.23.52,10.51,10.51,0,0,0-1.74,1l-.12.09a7,7,0,0,0-1,.76A3.25,3.25,0,0,0,7.31,7a3.91,3.91,0,0,1-.59,1.11l-.18.27-.29.43c-.57.87-1.4,2.05-1.87,2.6a27.78,27.78,0,0,0-2,3.44c-.22.43-.43.81-.58,1.09s-.15.29-.2.37a1.81,1.81,0,0,1-.37.31,2.52,2.52,0,0,0-1,3.23c.85,2.42,4.73,3.2,5.64,3.11a1.71,1.71,0,0,0,1.07-.51c.09-.1.09-.1.2-.12s.85-.11,1.52-.18a31.75,31.75,0,0,0,3.89-.56,31.1,31.1,0,0,0,3.82-1.26c.17.06.41.16.74.27.63.2,3.13,2.48,4.87,5.77a20.34,20.34,0,0,0,2.94,4.1,0,0,0,0,1,0,0,34.4,34.4,0,0,0,8.35,6.65q0,.3.06.57a4.34,4.34,0,0,1-.15,1.46c-.08.36-.19.74-.31,1.13,0,0,0,0,0,0-.09.28-.19.56-.29.85a16.82,16.82,0,0,0-.73,2.63A14.08,14.08,0,0,0,32,47.88a9.14,9.14,0,0,1,.13,1.4,14.34,14.34,0,0,1-2.35,6.84,4.84,4.84,0,0,0-1,2.63v1h8.14l-.09-1a20.77,20.77,0,0,1,.14-3.24c0-.51.11-1.1.2-1.73h0c.19-1.41.48-3.12.94-5.14a5.22,5.22,0,0,1,.8-1.53l.27-.41c.23.54.48,1.08.7,1.56a12.21,12.21,0,0,1,.63,1.43c1,4.13.23,5.72-.41,7a8.19,8.19,0,0,0-.39.85h0a3.33,3.33,0,0,0-.27,1.28v1h8.19l-.14-1.08S47,55.23,46,48.21a2.76,2.76,0,0,1,.34-1.35,2.76,2.76,0,0,0,.32-1.3,18.58,18.58,0,0,1,1.11-8c5.95.59,14.52.33,18.46-.75l.45-.13C70,35.6,73.56,34.56,75.79,34c.11.76.24,1.48.4,2.14.25,1.07.53,2,.77,2.82a9.24,9.24,0,0,1,.58,2.43,11.46,11.46,0,0,0,.34,3.08A12.05,12.05,0,0,1,78.12,46a15.87,15.87,0,0,1-.81,5.61,13.93,13.93,0,0,1-1.69,3.36,7.67,7.67,0,0,0-1.57,3.82v1h8.63v-1c0-.47,0-.88,0-1.24s0-.54,0-.79h0A7.65,7.65,0,0,1,83,54.34c.31-1,.69-2.59,1.13-4.43a78.56,78.56,0,0,1,2.15-8,5,5,0,0,1,.79-1.34,5.59,5.59,0,0,1,.66,1.28,12.53,12.53,0,0,0,.71,1.74c.24.48.5,1,.75,1.41.33.62.64,1.2.81,1.61a16.45,16.45,0,0,1,1,5.35,8.11,8.11,0,0,1-.95,3.78,7.91,7.91,0,0,0-.87,3v1H97.9v-1c0-.77-.19-2.5-.45-4.87-.35-3.39-.84-7.93-.92-11.21,0-.28,0-.55,0-.8a4.62,4.62,0,0,1,.35-1.51,4.63,4.63,0,0,0,.24-.84,0,0,0,0,0,0,0,1.92,1.92,0,0,0,0-.86,0,0,0,0,0,0,0,1.46,1.46,0,0,0-.44-.81c-.53-.57-2.45-4.81-2.45-6.09a15.55,15.55,0,0,1,.23-2s0,0,0,0c.21-1.46.55-3.44.86-5.29.11-.65.21-1.28.31-1.88.27-1.58.5-3,.62-3.92s.19-1.74.22-2.65a27.37,27.37,0,0,1,.77,4.28A33.91,33.91,0,0,1,97.44,24v0c0,.62-.07,1.19-.11,1.73h0c-.13,2.17-.17,3.78-.15,5v0A9,9,0,0,0,97.54,34a1,1,0,0,0,.86.53h0a1,1,0,0,0,.87-.53,2.79,2.79,0,0,0,.17-.76h0A73.34,73.34,0,0,0,99.37,24Z"/><path class="cls-2" d="M77.68,33.46a29.54,29.54,0,0,0,1.14,4.89,9.13,9.13,0,0,1,.65,3.15A9.83,9.83,0,0,0,79.78,44a13,13,0,0,1,.28,1.85,18.21,18.21,0,0,1-.89,6.25A16.33,16.33,0,0,1,77.27,56a14,14,0,0,0-1,1.84h4.5a1.27,1.27,0,0,0,0-.2,9.71,9.71,0,0,1,.47-3.81c.29-1,.68-2.59,1.09-4.33.69-2.89,1.46-6.17,2.21-8.23a7.23,7.23,0,0,1,1.15-1.94A5.48,5.48,0,0,0,86,38.8a28.08,28.08,0,0,1-2.11-4.06C83.19,33.1,81.11,32.67,77.68,33.46Z"/><path class="cls-3" d="M44,36.94c-2.56,3.7-3.14,4.54-3.93,6.78a17.78,17.78,0,0,0,1.4,3.61,11.31,11.31,0,0,1,.75,1.79c1.21,4.82.3,6.94-.4,8.34a3.48,3.48,0,0,0-.17.33h3.75c-.2-1.51-.63-4.62-1.28-9.36a4.52,4.52,0,0,1,.46-2.26c.06-.16.18-.43.2-.52a20,20,0,0,1,1.09-8.36C45.24,37.19,44.51,37.06,44,36.94Z"/><path class="cls-3" d="M29.19,7H29c-1.8,0-5.61-.35-7-.51-.3,0-.6,0-.93,0A12,12,0,0,1,17.61,6c-.35-.1-.68-.19-1-.3-.22.53-.42.91-.43.93a1,1,0,0,1-.86.51A.91.91,0,0,1,14.88,7a.94.94,0,0,1-.47-1.07,1,1,0,0,1,.07-.24A10.13,10.13,0,0,0,15,4.52a7.22,7.22,0,0,0,0-2.46,12.79,12.79,0,0,0-1.85,1.82A3.34,3.34,0,0,0,13,5.15a1.19,1.19,0,0,1,0,.46,1,1,0,0,1-1.88.06s0,0,0-.07l-.51.32L10.51,6A4,4,0,0,0,9.23,7.24,5.52,5.52,0,0,1,8.14,9.47l-.28.42a32.06,32.06,0,0,1-2,2.78c-.26.31-1.22,2.12-1.73,3.1-.33.63-.62,1.18-.8,1.47a.43.43,0,0,1,0,.07,2.79,2.79,0,0,1-.87.85c-.51.38-.59.46-.38,1.06C2.42,20.33,4.86,21,5.58,21a2.26,2.26,0,0,1,1.16-.6c.29-.06.8-.12,1.69-.21a34.49,34.49,0,0,0,3.63-.51c.85-.21,1.92-.56,2.67-.83.46-.17.8-.31.9-.36l0,0h0a5.47,5.47,0,0,0,1.9-1.45,1,1,0,1,1,1.59,1.1,5.82,5.82,0,0,1-.95,1c.15.09.41.16.56.27,5.06-2.54,10-9.25,12.23-12.58A15.48,15.48,0,0,1,29.19,7Z"/><path class="cls-1" d="M9.85,10.92l-.23,0a.86.86,0,0,1-.23-.06,1.1,1.1,0,0,1-.34-.18A.83.83,0,0,1,8.73,10a.79.79,0,0,1,.19-.54l.13-.13a1.22,1.22,0,0,1,.8-.26A1,1,0,0,1,11,10,1,1,0,0,1,9.85,10.92Z"/><path class="cls-4" d="M39.94,5a9.23,9.23,0,0,0-1,.13c-.89.15-2.09.39-3.31.65-.67.13-1.33.31-2,.43-1.31,2.12-7,10.9-13.33,14.47l.09.09a22.61,22.61,0,0,1,3.29,4.6,87.85,87.85,0,0,0,18.72-1.07C43,18.42,42.23,12.13,39.94,5Z"/><path class="cls-5" d="M68.31,22.08a.57.57,0,0,0,0-.13l-.25.08h0A77.71,77.71,0,0,1,44.6,26.18l1.83,5.9a2.48,2.48,0,0,1-.06.92,8.7,8.7,0,0,1-.39.88c-.24.5-.49.95-.71,1.34A60.9,60.9,0,0,0,57,35.88h0l.71,0h0a46.84,46.84,0,0,0,6.93-.69C67.64,30.43,68.87,25.94,68.31,22.08Z"/><path class="cls-2" d="M67.09,6.7h-.18L63.24,7c-1.52.1-3,.17-4.34.17-.72,0-1.64,0-2.73-.16A40.33,40.33,0,0,1,58.61,22.6a87.59,87.59,0,0,0,9.81-2.72A24.13,24.13,0,0,0,67.09,6.7Z"/><path class="cls-6" d="M50.38,6.2c-.76-.09-1.54-.21-2.31-.32-2.08-.29-4.34-.55-6-.73a47.51,47.51,0,0,1,2.31,19A65.1,65.1,0,0,0,56.65,23h0A38.35,38.35,0,0,0,54,6.73C52.84,6.6,51.62,6.37,50.38,6.2Z"/><path class="cls-6" d="M79.34,16.2a25.86,25.86,0,0,1-9.1,5.26c.66,3.9-.3,8.32-2.81,12.94,4.15-1.3,8.37-2.48,9.78-2.82a17,17,0,0,1,2.27-.38C77.86,26.14,77.82,20.24,79.34,16.2Z"/><path class="cls-2" d="M93.51,9.78a7.09,7.09,0,0,0-1.15-1.61l-.07-.07-.19-.16a5.4,5.4,0,0,0-.52-.45h0A8.81,8.81,0,0,0,86.27,6c-1.92,0-5.4.11-8.47.24l-.39,0a28.82,28.82,0,0,0,3.66,7.17v0l.05.07a68.86,68.86,0,0,0,12,12.78c.08-.47.17-1,.25-1.5l.12-.7c.4-2.29.77-4.46.92-5.72C94.82,15.56,95,12.58,93.51,9.78Z"/><path class="cls-4" d="M91.38,57.79H95.9c0-.31-.05-.68-.09-1.08-.08-.77-.18-1.67-.28-2.63-.4-3.71-.94-8.79-.94-12.21A6.36,6.36,0,0,1,95,39.72a3.26,3.26,0,0,0,.19-.66c-.92-1.08-2.92-5.65-2.92-7.36a27.76,27.76,0,0,1,.38-3.16A79.71,79.71,0,0,1,81.08,16.88a22,22,0,0,0-.4,11.57c2.57,1,4.24,4.18,4.46,4.6a5.29,5.29,0,0,1,.53,1,28.76,28.76,0,0,0,2.64,4.84,10,10,0,0,1,1.25,2.25.83.83,0,0,1,.08.22,16.92,16.92,0,0,0,1.29,2.75,18.8,18.8,0,0,1,.9,1.81,12.86,12.86,0,0,1,.68,2.21,24.33,24.33,0,0,1,.5,3.74A10.16,10.16,0,0,1,91.9,56.5C91.7,57,91.51,57.39,91.38,57.79Z"/><path class="cls-5" d="M79.05,13.89A29.19,29.19,0,0,1,75.4,6.33l-1.24,0c-.94,0-1.72,0-2.26,0s-1.62,0-2.72.13a26.42,26.42,0,0,1,1.33,12.76A23.43,23.43,0,0,0,79.05,13.89Z"/><path class="cls-6" d="M43.89,30.42l-1.28-4.17q-4.2.66-8.17,1l.61,4.3,0,.27a1.1,1.1,0,0,1,0,.18q0,.24-.06.54h0c0,.2,0,.42,0,.65h0s0,0,0,0a37.83,37.83,0,0,0,.26,4.24,5.74,5.74,0,0,1-.1,1.69,20.12,20.12,0,0,1-.74,2.58A15.05,15.05,0,0,0,33.75,44a5.89,5.89,0,0,0-.06,1.2h0a19,19,0,0,0,.21,2.33A8.83,8.83,0,0,1,34,49.4v.05A16.24,16.24,0,0,1,31.4,57.1c-.15.25-.28.5-.39.69h3.82a49.36,49.36,0,0,1,1.35-9.71,6.74,6.74,0,0,1,1.08-2.18,4.72,4.72,0,0,0,.36-.58c.5-1.56.85-2.62,1.22-3.53h0a33.26,33.26,0,0,1,3.7-6l.38-.55h0l.59-1.08A4.81,4.81,0,0,0,43.89,30.42Z"/><path class="cls-5" d="M32.45,27.33c-1.51.09-3,.13-4.47.13-1,0-2.07,0-3.08-.07.23.31.48.63.75.95a31.45,31.45,0,0,0,7.43,6.4,16.89,16.89,0,0,1,.06-2.9Z"/></g></g></svg>