<svg xmlns="http://www.w3.org/2000/svg" viewBox="0 0 99.57 59.72"><defs><style>.cls-1{fill:#333;}.cls-2{fill:#228765;}</style></defs><g id="Layer_2" data-name="Layer 2"><g id="Layer_1-2" data-name="Layer 1"><path class="cls-1" d="M9.77,11A1,1,0,0,0,10.89,10a1,1,0,0,0-1.12-.93A1,1,0,0,0,8.66,10,1,1,0,0,0,9.77,11Z"/><path class="cls-2" d="M2.41,18.16a3.06,3.06,0,0,0,.88-.88c.16-.27.48-.86.84-1.55.51-1,1.47-2.79,1.73-3.09.54-.64,1.42-1.9,2-2.79l.27-.41A5.3,5.3,0,0,0,9.23,7.2,4.27,4.27,0,0,1,10.51,6l.13-.09.51-.32a.17.17,0,0,1,0,.07,1,1,0,0,0,1.22.66A.94.94,0,0,0,13,5.57a.9.9,0,0,0,0-.46,3.31,3.31,0,0,1,.14-1.26A12.29,12.29,0,0,1,15,2a7.42,7.42,0,0,1,0,2.45c-.24.64-.52,1.17-.52,1.18a.67.67,0,0,0-.07.24A1,1,0,0,0,14.89,7a.91.91,0,0,0,.45.11,1,1,0,0,0,.86-.51s.21-.4.43-.93l1,.3a12.68,12.68,0,0,0,3.52.48c.32,0,.63,0,.92,0,1.41.15,5.43.53,7.14.5a54.92,54.92,0,0,0,6.42-1.12C37.44,5.47,39.16,5.12,40,5a72.21,72.21,0,0,1,8,.91A105.66,105.66,0,0,0,58.83,7.14c2.41,0,5.38-.23,8-.42,2-.16,3.83-.29,4.94-.29s3.46-.1,5.9-.19C80.75,6.12,84.23,6,86.15,6a8.85,8.85,0,0,1,5.31,1.49h0c.18.13.35.29.52.44l.19.17a.46.46,0,0,1,.07.07,6.8,6.8,0,0,1,1.15,1.61c1.45,2.79,1.31,5.79,1,8.61-.16,1.26-.52,3.42-.91,5.72-.68,4-1.12,6.66-1.12,7.59,0,1.71,2,6.28,2.93,7.36,0,.15-.13.44-.2.65a6.41,6.41,0,0,0-.46,2.16c0,3.42.55,8.5,1,12.21.16,1.47.3,2.79.37,3.7H91.38c.13-.39.32-.82.52-1.29A9.88,9.88,0,0,0,93,51.82a18.21,18.21,0,0,0-1.16-6c-.21-.51-.55-1.14-.91-1.81a16.61,16.61,0,0,1-1.29-2.76,9.38,9.38,0,0,0-1.32-2.46A27,27,0,0,1,85.67,34a4.8,4.8,0,0,0-.54-1c-.22-.43-2.06-3.95-4.87-4.75a1,1,0,1,0-.53,1.86,4.27,4.27,0,0,1,1.64,1,13.52,13.52,0,0,0-4.23.4c-1.56.37-6.5,1.77-11,3.22-4.07,1.3-15.44,1.46-20.87.41A17.64,17.64,0,0,0,46.37,33a1,1,0,0,0-.54-1.26,1,1,0,0,0-1.26.54,17.57,17.57,0,0,1-1.65,3h0l-.38.55c-3.28,4.73-3.48,5-4.92,9.51a4.72,4.72,0,0,1-.36.58,6.45,6.45,0,0,0-1.08,2.18,48.65,48.65,0,0,0-1.34,9.65H31l.39-.63A16.22,16.22,0,0,0,34,49.49a8.55,8.55,0,0,0-.14-1.87,12.83,12.83,0,0,1-.15-3.54,15.9,15.9,0,0,1,.66-2.33,10.91,10.91,0,0,0,.84-4.27A26,26,0,0,1,35.08,32a1,1,0,0,0-.78-1.13,1,1,0,0,0-1.13.78,14.25,14.25,0,0,0-.09,3.07C28.14,31.63,25,28,23.67,25.45A18.81,18.81,0,0,0,18.34,19a5,5,0,0,0,.85-.92A1,1,0,1,0,17.6,17a5.61,5.61,0,0,1-1.9,1.46h0l0,0a27.6,27.6,0,0,1-3.58,1.19,33.89,33.89,0,0,1-3.62.51c-.89.09-1.41.15-1.7.21a2.27,2.27,0,0,0-1.15.6c-.73,0-3.16-.7-3.55-1.82C1.83,18.59,1.9,18.54,2.41,18.16ZM85.64,39.28a7.23,7.23,0,0,0-1.15,1.94c-.75,2.06-1.53,5.34-2.21,8.23-.42,1.74-.8,3.37-1.09,4.33a9.69,9.69,0,0,0-.47,3.8c0,.07,0,.14,0,.2h-4.5a15,15,0,0,1,1-1.83,16,16,0,0,0,1.91-3.81,18.21,18.21,0,0,0,.89-6.25A13,13,0,0,0,79.78,44a9.85,9.85,0,0,1-.31-2.55,9.13,9.13,0,0,0-.65-3.14,29.54,29.54,0,0,1-1.14-4.89c3.43-.79,5.51-.36,6.2,1.28a26.46,26.46,0,0,0,2.11,4A4.29,4.29,0,0,1,85.64,39.28ZM44.77,45.65a3.81,3.81,0,0,1-.18.46,4.45,4.45,0,0,0-.47,2.36c.67,4.74,1.07,7.81,1.27,9.31H41.64q.07-.14.15-.3c.7-1.4,1.76-3.51.56-8.33a11.94,11.94,0,0,0-.75-1.8,17.78,17.78,0,0,1-1.4-3.61C41,41.5,41.56,40.66,44.13,37c.51.12,1.1.22,1.73.31A19.93,19.93,0,0,0,44.77,45.65ZM5.86,22.94a1.62,1.62,0,0,0,1-.51c.1-.1.1-.1.21-.12s.86-.11,1.52-.18a36,36,0,0,0,3.89-.55,30.9,30.9,0,0,0,3.82-1.28c.17.07.4.16.74.27.64.21,3.13,2.48,4.87,5.78,2,3.82,6.22,7.82,11.3,10.76q0,.3.06.57a9.53,9.53,0,0,1-.75,3.45,18.65,18.65,0,0,0-.74,2.63A14.37,14.37,0,0,0,32,47.87a9.35,9.35,0,0,1,.13,1.4,14.19,14.19,0,0,1-2.35,6.84,4.89,4.89,0,0,0-1,2.64v1h8.14l-.08-1s-.24-3.3,1.28-10.12a5,5,0,0,1,.8-1.52l.27-.41c.23.54.48,1.07.7,1.55a12.13,12.13,0,0,1,.63,1.45c1,4.12.23,5.71-.41,7a4.6,4.6,0,0,0-.66,2.14v1h8.19l-.14-1.09S47,55.23,46,48.2a2.85,2.85,0,0,1,.33-1.34,2.56,2.56,0,0,0,.33-1.3,18.63,18.63,0,0,1,1.11-8c6.18.62,15.2.31,18.91-.88,3.31-1.06,6.84-2.09,9.07-2.7a31.1,31.1,0,0,0,1.18,5,10.06,10.06,0,0,1,.57,2.42,11.14,11.14,0,0,0,.34,3.09A11.79,11.79,0,0,1,78.12,46a16.54,16.54,0,0,1-.8,5.61,14.46,14.46,0,0,1-1.7,3.35,7.7,7.7,0,0,0-1.57,3.83v1h8.64v-1c0-.48,0-.88,0-1.24A7.93,7.93,0,0,1,83,54.34c.31-1,.69-2.6,1.12-4.44.68-2.84,1.44-6.06,2.15-8a5.12,5.12,0,0,1,.8-1.34,5.46,5.46,0,0,1,.67,1.27A16.35,16.35,0,0,0,89.23,45c.33.62.64,1.2.81,1.61a16.1,16.1,0,0,1,1,5.34,8.19,8.19,0,0,1-.95,3.79,7.84,7.84,0,0,0-.86,3v1H97.9v-1c0-.77-.19-2.49-.44-4.87-.4-3.67-.94-8.7-.94-12a4.68,4.68,0,0,1,.35-1.52,2.29,2.29,0,0,0-.17-2.56c-.52-.57-2.46-4.81-2.46-6.09,0-.84.59-4.25,1.1-7.27.39-2.31.76-4.5.93-5.8.11-.85.19-1.74.22-2.65a30,30,0,0,1,1,8h0c-.55,7.75-.11,9.57.1,10a1,1,0,0,0,.87.53h0a1,1,0,0,0,.87-.54c.48-1,.27-6.64.1-10,0-7.52-2-13.54-5.71-17.14l-.13-.13-.43-.38a10.28,10.28,0,0,0-6.94-2.29c-2,0-5.48.12-8.57.24-2.41.1-4.69.19-5.82.19s-3,.13-5.09.29c-2.59.2-5.53.42-7.86.42A105.89,105.89,0,0,1,48.27,4c-4.6-.65-7.47-1-8.52-.92s-2.66.47-4.52.86A57.92,57.92,0,0,1,29.17,5c-1.59,0-5.62-.35-6.9-.48-.36,0-.71,0-1.09-.06a10.55,10.55,0,0,1-3-.4L17,3.74A7.18,7.18,0,0,0,16.67.83,2,2,0,0,0,14.34.15a12.34,12.34,0,0,0-2.79,2.63,2.27,2.27,0,0,0-.23.52,11.29,11.29,0,0,0-1.74,1l-.13.09c-.34.21-2,1.37-2.14,2.61a5.13,5.13,0,0,1-.78,1.39l-.28.43a31.86,31.86,0,0,1-1.87,2.59,29.08,29.08,0,0,0-2,3.45c-.34.64-.63,1.2-.79,1.46a2.06,2.06,0,0,1-.36.31,2.51,2.51,0,0,0-1,3.23C1.06,22.25,4.94,23,5.86,22.94Z"/></g></g></svg>