<svg xmlns="http://www.w3.org/2000/svg" viewBox="0 0 85.84 59.72"><defs><style>.cls-1{fill:#228765;}</style></defs><g id="Layer_2" data-name="Layer 2"><g id="Layer_1-2" data-name="Layer 1"><path class="cls-1" d="M2.9,15.37h0v0a.79.79,0,0,0-.06-.29l0-.06a.65.65,0,0,0-.1-.15.82.82,0,0,0-.46-.28,1.74,1.74,0,0,0-.5-.08c.35-1.7,2.65-4.83,4.54-6.11A.79.79,0,0,0,6.61,8c.18-.5.31-1,.43-1.37,1.78-.68,5.74-1.69,7.62,0a2.28,2.28,0,0,1,.52,1.84,7,7,0,0,1-2.56,4.92,14.9,14.9,0,0,0-4.1,5.17l-.32.11C6.64,19.2,4.51,20,3.34,19.71c-.65-.14-1.34-1.8-1.57-3.41.92-.06,1.14-.52,1.14-.91ZM9.32,2.9C11.94,1,17,1.6,19.61,2.79A8.56,8.56,0,0,1,21.32,4h0l0,0c-.18.09-.36.2-.55.31l-.18.11c-.15.09-.29.19-.44.3l-.18.13c-.19.15-.39.31-.58.48h0a6.85,6.85,0,0,0-.52.55l-.15.17q-.2.24-.36.48l-.14.2c-.15.24-.29.48-.42.74a.85.85,0,0,0,.4,1.13.83.83,0,0,0,.34.07h0a.75.75,0,0,0,.26,0l.06,0a.82.82,0,0,0,.2-.12l.06-.05a.84.84,0,0,0,.18-.24c.05-.1.11-.19.16-.28l.2-.36a6,6,0,0,1,.9-1h0A7.76,7.76,0,0,1,23.14,5c.4-.14.77-.24,1.09-.32-.09.27-.21.59-.37,1a11.86,11.86,0,0,1-.95,1.91l-.07.08a.88.88,0,0,0-.12.15l-.08.1a1.52,1.52,0,0,0-.06.2s0,.07,0,.11a1.64,1.64,0,0,0,0,.22s0,.07,0,.1a2,2,0,0,0,.11.2l0,.09A.83.83,0,0,0,23,9l.12,0a.54.54,0,0,0,.21,0h0a1,1,0,0,0,.17,0l.09,0a.85.85,0,0,0,.28-.15,2.49,2.49,0,0,0,.22-.23l.07-.09.16-.23a.83.83,0,0,1,.08-.12L24.61,8a.75.75,0,0,0,.07-.12c.08-.14.15-.28.22-.42h0a18.11,18.11,0,0,0,3.34,2.84c2.08,1.13,5.08,2.36,11.59,2.79A53.84,53.84,0,0,0,49,12.64a112.59,112.59,0,0,1,12.27-.73C70,11.91,76,14.37,79,19.22c2.72,4.35,3.7,13.88,3.73,17.56.06,6.41-1,7.76-1.46,8-1,.61-2.47.64-4.48.12l-.9-.35h0a13.61,13.61,0,0,1-3.57-2.94,23.53,23.53,0,0,0-2.52-2.32.84.84,0,1,0-1,1.36,21.61,21.61,0,0,1,2.33,2.15l.34.34c-.92-.16-2-.3-2.8-.41l-.21,0a32.18,32.18,0,0,0-4.23-.11l-.08,0-.12,0a14,14,0,0,0-1.42.11c-.23,0-.53.09-.89.17a33.48,33.48,0,0,1-9.38.64,39.76,39.76,0,0,1-12.5-3,2.59,2.59,0,0,1,.45-.74.84.84,0,0,0-1.22-1.15A4.34,4.34,0,0,0,38,40.91h0a3.93,3.93,0,0,1-1.57,2.3c-1.36,1-4.85.88-5.77.05a5.84,5.84,0,0,1-1.48-2.19h0L29,40.49a12.06,12.06,0,0,0-2.46-4.83.84.84,0,0,0-1.23,1.15,9.36,9.36,0,0,1,1.9,3.6c-3.07-.31-6.9-1.36-8.2-2.31-.94-.68-2.94-2.8-5.82-9.29A52.17,52.17,0,0,1,10,19.3a13.19,13.19,0,0,1,3.59-4.57,8.84,8.84,0,0,0,3.25-6.2,3.81,3.81,0,0,0-1.08-3.18c-2.21-2-5.87-1.37-8-.75A5.17,5.17,0,0,1,9.32,2.9ZM83.77,58h-4a52.53,52.53,0,0,0-2-11.18,10.23,10.23,0,0,0,1.52.12,6.37,6.37,0,0,0,1.8-.25A115,115,0,0,0,83.77,58ZM70.4,46a.83.83,0,0,0-.22.6l0,.7c0,1.1.08,2.36.08,4a28.79,28.79,0,0,1-.87,5.47c-.12.56-.22,1-.29,1.34H65.79a31.49,31.49,0,0,0,1.45-6.87,18.83,18.83,0,0,0-.78-4.92.91.91,0,0,0-.25-.42,5.38,5.38,0,0,1-1-1.54,25.14,25.14,0,0,1,3,.12l.2,0c.76.1,1.82.24,2.71.39A5,5,0,0,1,70.4,46ZM35.12,55c.07,1.07.14,2.18.16,3H31.19a58.7,58.7,0,0,0,.4-7.75l0-.5a29.44,29.44,0,0,0-.41-4.45,9.19,9.19,0,0,0,4.77-.07,36.56,36.56,0,0,0-1,5.87C34.92,52,35,53.47,35.12,55ZM25.19,43.86a.77.77,0,0,0-.26.42l-.3,1.1c-1.26,4.75-2.37,8.89-3.11,12.66H17.74c2.17-4.61,2.32-6.83,2.71-12.55l.15-2.1a.76.76,0,0,0-.09-.42A7.08,7.08,0,0,1,20,40.46,29.69,29.69,0,0,0,26.26,42,3.84,3.84,0,0,1,25.19,43.86ZM3,21.36c1.56.34,3.74-.4,5.54-1a55.13,55.13,0,0,0,3.11,9.18c1.59,3.58,4,8.22,6.36,10l.34.22a8.48,8.48,0,0,0,.57,3.8l-.13,1.89c-.41,6.11-.54,8-3.13,13.14a.84.84,0,0,0,.76,1.21h5.81A.85.85,0,0,0,23,59c.73-3.89,1.88-8.22,3.22-13.22l.23-.88a5.54,5.54,0,0,0,1.41-2.58,7.72,7.72,0,0,0,1.32,1.86,28,28,0,0,1,.67,5.63l0,.51a44.56,44.56,0,0,1-.53,8.14.84.84,0,0,0,.75,1.22h6a.85.85,0,0,0,.85-.8c0-.89-.06-2.4-.16-4s-.19-2.94-.16-3.7A30.52,30.52,0,0,1,38.1,44a5.88,5.88,0,0,0,1.25-1.82,41.09,41.09,0,0,0,12.89,3.06,34.78,34.78,0,0,0,9.81-.68l.79-.15.61,0a6.84,6.84,0,0,0,1.43,2.52,17.49,17.49,0,0,1,.68,4.23,28.48,28.48,0,0,1-1.76,7.43.85.85,0,0,0,.77,1.19h5.28a.84.84,0,0,0,.85-.84c0-.21.19-1.06.35-1.81A29.72,29.72,0,0,0,72,51.23c0-1.65,0-2.92-.09-4v-.37a6.74,6.74,0,0,0,1-1.6c.66.23,1.69.63,2.44.93h0l.55.22c1.23,3.75,2.35,10,2.21,12.45a.87.87,0,0,0,.23.63.83.83,0,0,0,.61.26H85a.83.83,0,0,0,.71-.4.81.81,0,0,0,0-.81C85,57,83.62,51,82.64,45.89c1.27-1.26,1.85-4.19,1.8-9.13,0-4-1-13.73-4-18.43-3.36-5.38-9.83-8.1-19.23-8.1A115.28,115.28,0,0,0,48.79,11a53,53,0,0,1-8.85.41C33.77,11,31.06,9.88,29.06,8.78a20.53,20.53,0,0,1-3.44-3c.76-1.91.55-2.27.38-2.52a1,1,0,0,0-.75-.4,8.77,8.77,0,0,0-2.19.42,11.31,11.31,0,0,0-2.76-2c-2.89-1.3-8.7-2.11-12,.3A7,7,0,0,0,5.47,6c-.11.38-.22.76-.36,1.17C3,8.72.26,12.32,0,14.53S.76,20.87,3,21.36Z"/><path class="cls-1" d="M8.27,8.48A1.18,1.18,0,0,1,9.53,9.54a1.17,1.17,0,0,1-1.26,1.05A1.18,1.18,0,0,1,7,9.54,1.18,1.18,0,0,1,8.27,8.48Z"/></g></g></svg>