<svg xmlns="http://www.w3.org/2000/svg" viewBox="0 0 84.56 84.56"><defs><style>.cls-1{isolation:isolate;}.cls-2{fill:#fff;}</style></defs><g id="Layer_2" data-name="Layer 2"><g id="Layer_1-2" data-name="Layer 1"><g class="cls-1"><path class="cls-2" d="M70.89,66.52a10.56,10.56,0,1,1-14.94,0,10.56,10.56,0,0,1,14.94,0"/><path class="cls-2" d="M39.18,66.52a10.56,10.56,0,1,1-14.94,0,10.56,10.56,0,0,1,14.94,0"/><path class="cls-2" d="M83.49,12.67a5.3,5.3,0,0,0-4.21-2.1H63.42V21.14h8.86L64.72,47.57H25.62L18.41,4.42A5.27,5.27,0,0,0,13.21,0H0V10.57H8.73l7.19,43.15a5.29,5.29,0,0,0,5.22,4.42H68.71a5.27,5.27,0,0,0,5.07-3.85l10.57-37A5.23,5.23,0,0,0,83.49,12.67Z"/></g><polygon class="cls-2" points="60.78 7.93 53.08 0.23 39.87 13.44 34.35 7.93 26.43 15.86 39.64 29.07 60.78 7.93"/></g></g></svg>