<svg xmlns="http://www.w3.org/2000/svg" viewBox="0 0 144.4 82.2"><defs><style>.cls-1{fill:#fff;}</style></defs><g id="Layer_2" data-name="Layer 2"><g id="Layer_1-2" data-name="Layer 1"><path class="cls-1" d="M123,46.74a43.76,43.76,0,0,0-4.06-5.63,2,2,0,0,0-2.25-.67,35.93,35.93,0,0,0-4.06,2c2.71,11.5,2.48,19.61-7.89,34.49a1,1,0,0,0,.46,1.58,9.43,9.43,0,0,0,4.51.9,1.68,1.68,0,0,0,1.57-1.35,5.25,5.25,0,0,1,1.35-2c.23-.22.46-.67.68-.9a47.32,47.32,0,0,1,8.8-19.39C124.31,52.16,123.4,49.23,123,46.74Zm-56.35,0H61.2c-.23,0-.46.23-.68.46-.68,2-1.13,4.28-1.58,6.09,3.6,8.56,2.7,16.67-1.13,22.76-1.35,2-3.38,4.28-1.12,5a11.46,11.46,0,0,0,2.7.45A2.05,2.05,0,0,0,61,80.78a14.09,14.09,0,0,1,2.25-2.93c2-1.8,2.7-4.06,3.15-6.53a10,10,0,0,0,.23-2.49C66.37,61.85,66.37,54.41,66.6,46.74Z"/><path class="cls-1" d="M14.76,14.74a1.53,1.53,0,0,0-1.36-.9v.22a.71.71,0,0,1-.67.68.81.81,0,0,1-.46-.22,1.76,1.76,0,0,0-.44.9v.44a6.69,6.69,0,0,1-2-.21c.45,0,.9-.68,1.13-1.13.45-.46.45-.91.9-1.13a1.66,1.66,0,0,1,1.8-.23c.68,0,1.36.23,1.81.23A2,2,0,0,1,14.76,14.74ZM3.72,26a4,4,0,0,1-1.59,1.12c-.22,0-.45.23-.67,0C1,26.92,1,26.69,1,26.24a1.51,1.51,0,0,1,.91-1.13,11.27,11.27,0,0,0,1.58-.68c.23,0,.45,0,.45.23C4.17,25.11,3.94,25.56,3.72,26ZM141.21,12.48c-1.58-3.83-4.28-7.89-7.67-10.14C129.71.09,123.85-.59,115.29.53A149.89,149.89,0,0,1,83.51.76,109.92,109.92,0,0,0,57.81,1C45.19,2.79,35,5.72,27.39,5.27A1.51,1.51,0,0,1,26,3.7c-.23-2.49-2.7-4.29-7.89-.23C14.31.53,10.48,5,8.67,6.85a9.75,9.75,0,0,0-2.93,6.31C5.29,19.25,2.13,21.5.56,24A3.75,3.75,0,0,0,1,28.49,9.31,9.31,0,0,0,4.61,31a1.62,1.62,0,0,0,.9-.44c2.49-1.35,2.93-6.77,6.32-5.19.23,0,.23.23.23.46s-.23.22-.45.22c-2.94-1.13-2.94,3.38-5.42,5.18a8.32,8.32,0,0,0,4.51-1.57c5-2.49,8.8-3.16,11.27-4.06a3.52,3.52,0,0,1,3.61.68,26.29,26.29,0,0,0,6.31,4.28,9.74,9.74,0,0,1,2.48,1.8,39.13,39.13,0,0,0,10.14,6.76,11.55,11.55,0,0,1,6.31,10.15,62.1,62.1,0,0,1-.68,8.56,23.43,23.43,0,0,0-.21,3.83,31.55,31.55,0,0,1-2.49,14.21,12.16,12.16,0,0,1-2.93,2.93.84.84,0,0,0,0,1.35c1.57,2,4.29,2.25,8.34.67a1.49,1.49,0,0,0,.91-1.12L54,76.05c.23-2.26-.89-10.6,4.51-29.76A5,5,0,0,1,59.39,45a10.44,10.44,0,0,0,2.25-5.64c.45-4.73-5.86-12.18,1.35-19.16a.42.42,0,0,1,.68,0,.41.41,0,0,1,0,.67c-6.76,6.54-.22,12.86-.68,18.49a12.47,12.47,0,0,1-1.35,5,29.41,29.41,0,0,0,9-.68c6.08-.68,14.2.45,22.54,2.26a14.72,14.72,0,0,0,8.79-.68c5.86-2.48,10.14-5.86,13.75-7.21a2,2,0,0,1,1.13-.23c-4.29-5.41-5-11.49-2.7-16.23.21-.22.44-.45.66-.22s.46.45.23.67c-2.48,5.63,0,10.82,3.61,15.33A43.72,43.72,0,0,1,131.29,74.7a1.58,1.58,0,0,1-.68,1.35l-2.7,3.61c-.45.45-.22,1.12.23,1.57a8.54,8.54,0,0,0,5,.91,2.8,2.8,0,0,0,1.8-.91l1.35-1.57a3.78,3.78,0,0,0,.68-2.26c-.68-5.86,0-13.52.9-21.86a10.22,10.22,0,0,0-.67-4.51c-7.22-15.78-.45-28.17.67-34.26a22,22,0,0,0,.45-5.18,9.5,9.5,0,0,1,.9,1.57c2,4.51,2,11.5.91,16.46C139,35.25,137.83,44.49,143,47l.23-.23c-2-4.05.68-11,1.13-16.44A39.72,39.72,0,0,0,141.21,12.48Z"/></g></g></svg>