<svg xmlns="http://www.w3.org/2000/svg" viewBox="0 0 106.67 106.67"><defs><style>.cls-1{fill:#fff;}</style></defs><g id="Layer_2" data-name="Layer 2"><g id="Layer_1-2" data-name="Layer 1"><path class="cls-1" d="M53.34,100a47.75,47.75,0,0,1-14-2,4.37,4.37,0,0,1,0-4A109.16,109.16,0,0,1,48,79.33c1.32-1.33,2.68-2.66,2.68-4.67A12.13,12.13,0,0,1,52,70c2-3.33,1.33-5.34-1.33-6-5.34-1.36-8-6-12-8s-8-3.33-11.33-1.33C26,55.34,24,56,24,54c0-2.69-3.33-4.7-2.68-7.35a2.47,2.47,0,0,0-2,.68c-.65.65-1.33,1.33-2.65.65-1.33-1.33-.68-2.66-.68-4a5.32,5.32,0,0,1,2.68-2.69c2.66-.65,5.34-.65,6.67,2.69,2-6,6-9.36,10-12,0,0,5.34-4.66,6-4.66s1.33,1.33,2.69,2c1.32,0,2,0,2-1.32.68-3.34-1.33-7.32-4-8a.65.65,0,0,1,.65-.68c2-.65,4.69-2,4-4,0-2.69-2.65-4-5.34-4a8.23,8.23,0,0,0-4,.68,22.41,22.41,0,0,1-10,2.65c7.31-5.34,16.67-8,26-8h5.34A40.9,40.9,0,0,0,48,10c4,.68,4.66,2.65,3.33,6a2.43,2.43,0,0,0,1.33,3.33C54,20,55.34,20,56,18.67c1.36-2,4-2.68,6-3.33a11.48,11.48,0,0,0,6.67-4.66c0-.68.64-.68,1.32-1.36,4,1.36,8,4,12,6.67-.68,0-.68.68-1.32.68-1.37,1.32-3.34,2-1.37,4.66.69,1.32,0,2-.64,2.69-1.33.64-2,0-2.69-.69s-.65-2-2.65-2c-.68,1.32-2.66,2-2.66,4C74,25.34,73.34,28,74,30c-4,.68-5.34,2.66-3.34,6,.65,1.36-.68,2-1.36,2.69C66.67,42.66,64,45.34,64,50s3.33,9.32,8.64,8.68c6-.68,6-.68,8,4.66,0,.68.64,1.32.64,2,.68,1.33,1.33,2.66.68,4-2,5.34.65,9.36,2.66,13.34a9.17,9.17,0,0,0,2,2.69A44.41,44.41,0,0,1,53.34,100ZM6.67,53.34a40.4,40.4,0,0,1,.68-8.68c.64,0,1.32.68,2,.68A2.25,2.25,0,0,1,10,46.67,3.57,3.57,0,0,0,13.33,50c5.34.68,7.35,5.34,12,6.67,1.33.68.65,2,0,3.33-4,5.34-.68,9.32,2.65,12.66C31.33,75.34,31.33,78,32,82a38,38,0,0,0,2.65,14.66C18,88.68,6.67,72.66,6.67,53.34ZM88,35.34c2.69,0,4.66,2,7.35,2C93.34,40,84.67,40,82,36.67A15.74,15.74,0,0,1,88,35.34ZM53.34,0a53.34,53.34,0,1,0,53.33,53.34A53.51,53.51,0,0,0,53.34,0Z"/></g></g></svg>